<?xml version="1.0" encoding="utf-8"?>
<!-- Generator: Adobe Illustrator 22.0.1, SVG Export Plug-In . SVG Version: 6.00 Build 0)  -->
<svg version="1.2" baseProfile="tiny" id="圖層_1"
	 xmlns="http://www.w3.org/2000/svg" xmlns:xlink="http://www.w3.org/1999/xlink" x="0px" y="0px" viewBox="0 0 83.9 84.2"
	 xml:space="preserve">
<path fill="#444444" d="M1.1,65.6c0,3.5-0.1,6.8,0,10c0,0.9,0.4,1.9,0.8,2.7c2,3.9,5.2,5.8,9.6,5.8c20.3,0,40.6,0,60.9,0
	c0.4,0,0.7,0,1.1,0c4.6-0.3,8.5-3.5,9.1-8c0.5-3.4,0.1-6.9,0.1-10.5c-0.7,0-1.5,0-2.5,0c0,2.6-0.1,5,0,7.5c0.3,5-3.4,8.4-8.2,8.3
	c-7.7-0.2-15.4,0-23.1,0c-12.4,0-24.7-0.1-37.1,0.1c-5,0.1-8.5-3.5-8.2-8.1c0.1-2,0-4.1,0-6.1c0-0.5-0.1-1-0.1-1.6
	C2.7,65.6,2,65.6,1.1,65.6z"/>
<g>
	<path fill="#444444" d="M67,32.4c0.2,0,0.4,0.1,0.5,0.1c0,0.6,0,1.3,0,1.9c0,6.9,0,13.8,0,20.7c0,0.7,0,1.3,0.1,2
		c0.2,1.1,1,1.6,2.1,1.6c1.1,0,1.8-0.6,2.1-1.6c0.1-0.5,0.1-1,0.1-1.4c0-9.9,0-19.8,0-29.7c0-1.9-0.4-2.8-1.6-3.1
		c-1.5-0.4-2.3,0.6-3.1,1.7c-0.2,0.3-0.4,0.6-0.6,0.9c-3.7,5-7.3,10.1-11,15.1c-0.4,0.6-0.9,1.1-1.4,1.8c-0.6-0.8-1.1-1.4-1.5-2
		c-3.8-5.2-7.6-10.4-11.4-15.6c-0.8-1.1-1.6-2.4-3.3-1.9c-1.7,0.6-1.5,2.1-1.5,3.5c0,9.6,0,19.2,0,28.8c0,0.6,0,1.2,0.1,1.8
		c0.2,1.1,1.1,1.8,2.2,1.8c1.1,0,1.9-0.7,2.1-1.9c0.1-0.5,0-1.1,0-1.6c0-7,0-13.9,0-20.9c0-0.6,0-1.2,0-1.9c0.1,0,0.3-0.1,0.4-0.1
		c0.4,0.5,0.8,1,1.2,1.5c3.1,4.2,6.2,8.4,9.2,12.7c1.4,2,3.5,2.5,5.1-0.1c0.9-1.4,2-2.7,2.9-4.1C62.2,39.1,64.6,35.7,67,32.4z"/>
	<path fill="#444444" d="M83.4,20.1c0-3.4,0-6.6,0-9.9C83.3,4.4,79,0,73.3,0C52.7,0,32.1,0,11.5,0C5.8,0,1.5,4.5,1.4,10.3
		c0,2.8,0,5.6,0,8.5c0,0.5,0.1,0.9,0.1,1.3c0.9,0,1.8,0,2.6,0c0-3.1,0-6.1,0-9.1c0-5.2,2.9-8.1,8.2-8.1c20.1,0,40.1,0.1,60.2-0.1
		c4.8,0,8.5,3.3,8.2,8.3c-0.2,3,0,6,0,9C81.6,20.1,82.4,20.1,83.4,20.1z"/>
	<path fill="#444444" d="M79.5,40.9c0,4.9,0,9.7,0,14.6c0,0.5,0,1.1,0.1,1.6c0.2,1,1.2,1.8,2.2,1.8c1,0,1.9-0.8,2.1-1.9
		c0.1-0.5,0.1-1.1,0.1-1.6c0-9.7,0-19.3,0-29c0-0.5,0-1.1-0.1-1.6c-0.2-1.2-1-1.8-2.1-1.9c-1.1,0-2,0.7-2.2,1.8
		c-0.1,0.5-0.1,1-0.1,1.4C79.5,31.1,79.5,36,79.5,40.9z"/>
	<path fill="#444444" d="M53.8,10.1c-7.7-2.8-15.2-2.8-22.9,0.1c0,0.9,0,1.8,0,2.7c0,0.4,0.1,0.8,0.1,1.3c7.6,0,15.1,0,22.7,0
		C53.8,12.8,53.8,11.6,53.8,10.1z"/>
	<path fill="#444444" d="M83.4,20.1c-1,0-1.8,0-2.8,0c0-3.1-0.1-6.1,0-9c0.3-5-3.5-8.3-8.2-8.3c-20.1,0.1-40.1,0-60.2,0.1
		c-5.2,0-8.1,2.9-8.2,8.1c0,3,0,6,0,9.1c-0.9,0-1.7,0-2.6,0c0-0.4-0.1-0.8-0.1-1.3c0-2.8,0-5.6,0-8.5C1.5,4.5,5.8,0,11.5,0
		c20.6,0,41.2,0,61.8,0c5.7,0,10,4.4,10.1,10.1C83.5,13.4,83.4,16.7,83.4,20.1z"/>
	<path fill="#444444" d="M1.5,65.6c0.9,0,1.6,0,2.5,0c0,0.6,0.1,1.1,0.1,1.6c0,2,0.1,4.1,0,6.1c-0.3,4.6,3.2,8.2,8.2,8.1
		c12.4-0.2,24.7-0.1,37.1-0.1c7.7,0,15.4-0.1,23.1,0c4.8,0.1,8.5-3.3,8.2-8.3c-0.1-2.4,0-4.9,0-7.5c1,0,1.8,0,2.5,0
		c0,3.5,0.4,7.1-0.1,10.5c-0.6,4.5-4.6,7.7-9.1,8c-0.4,0-0.7,0-1.1,0c-20.3,0-40.6,0-60.9,0c-4.4,0-7.6-1.9-9.6-5.8
		c-0.4-0.8-0.8-1.8-0.8-2.7C1.5,72.4,1.5,69.1,1.5,65.6z"/>
	<path fill="#444444" d="M53.8,10.1c0,1.4,0,2.7,0,4c-7.6,0-15.1,0-22.7,0c0-0.5-0.1-0.9-0.1-1.3c0-0.9,0-1.8,0-2.7
		C38.6,7.3,46.1,7.3,53.8,10.1z"/>
	<path fill="#444444" d="M25,40.1c-0.1-0.1-0.2-0.3-0.4-0.5c0.1-0.3,0.2-0.5,0.4-0.8c1.6-2.2,2-4.6,1.8-7.2
		c-0.3-4.9-3.5-8.2-8.5-8.6c-0.8-0.1-1.6-0.1-2.3-0.1c-4.2,0-8.4,0-12.6,0c-2.8,0-3.4,0.6-3.4,3.4c0,9.7,0,19.5,0,29.2
		c0,2.7,0.7,3.4,3.4,3.4c4.4,0,8.8,0,13.2,0c1.5,0,3-0.1,4.5-0.3c3.8-0.7,6.5-2.8,7.4-6.7C29.6,47.4,29,43.2,25,40.1z M24.4,49.8
		c-0.3,2.7-1.8,4.5-4.5,4.6c-5,0.2-10.1,0.1-15.3,0.1c0-9.1,0-17.9,0-27.1c1,0,1.9,0,2.8,0c2.9,0,5.8,0,8.6,0c0.4,0,0.8,0,1.3,0
		c4.3,0.3,6.5,4,4.7,8c-0.9,2.1-2.8,2.8-4.9,2.8c-2.2,0.1-4.4,0-6.7,0.1c-1.8,0.1-2.9,1.5-2.2,3c0.5,1.1,1.4,1.4,2.5,1.4
		c2.2,0,4.4-0.1,6.7,0c1.2,0,2.5,0.2,3.7,0.6c2.1,0.6,3.1,2.2,3.3,4.3C24.5,48.2,24.5,49,24.4,49.8z"/>
</g>
<g>
	<path fill="#444444" d="M17.7,72.4l1.1,0.2c-0.1,1-0.4,1.9-0.9,2.5S16.8,76,16.1,76c-0.9,0-1.6-0.4-2.1-1.2c-0.5-0.8-0.8-2-0.8-3.5
		c0-1,0.1-1.8,0.3-2.6s0.6-1.3,1.1-1.7c0.5-0.4,1-0.6,1.5-0.6c0.7,0,1.3,0.2,1.7,0.8c0.4,0.5,0.7,1.2,0.9,2.1l-1.1,0.2
		c-0.1-0.6-0.3-1.1-0.5-1.4c-0.3-0.3-0.6-0.5-0.9-0.5c-0.5,0-1,0.3-1.3,0.8c-0.3,0.6-0.5,1.4-0.5,2.6c0,1.2,0.2,2.1,0.5,2.7
		c0.3,0.6,0.8,0.8,1.3,0.8c0.4,0,0.8-0.2,1.1-0.6C17.5,73.8,17.6,73.2,17.7,72.4z"/>
	<path fill="#444444" d="M24.5,74.6c-0.4,0.5-0.8,0.8-1.2,1c-0.4,0.2-0.8,0.3-1.2,0.3c-0.7,0-1.3-0.2-1.6-0.7s-0.6-1.1-0.6-1.9
		c0-0.4,0.1-0.9,0.2-1.2c0.1-0.4,0.3-0.7,0.6-0.9c0.2-0.2,0.5-0.4,0.8-0.5c0.2-0.1,0.5-0.2,1-0.2c0.9-0.1,1.5-0.3,1.9-0.5
		c0-0.2,0-0.3,0-0.4c0-0.6-0.1-1.1-0.3-1.3c-0.3-0.3-0.7-0.5-1.2-0.5c-0.5,0-0.9,0.1-1.1,0.4c-0.2,0.3-0.4,0.7-0.5,1.3l-1.1-0.2
		c0.1-0.6,0.3-1.2,0.5-1.6c0.2-0.4,0.5-0.7,1-0.9c0.4-0.2,0.9-0.3,1.5-0.3c0.5,0,1,0.1,1.3,0.3c0.3,0.2,0.6,0.4,0.8,0.7
		c0.2,0.3,0.3,0.6,0.3,1.1c0,0.3,0.1,0.7,0.1,1.4v2.1c0,1.4,0,2.3,0.1,2.7c0,0.4,0.1,0.7,0.3,1.1h-1.1
		C24.6,75.4,24.5,75.1,24.5,74.6z M24.4,71.2c-0.4,0.2-1,0.4-1.8,0.6c-0.4,0.1-0.8,0.2-1,0.3c-0.2,0.1-0.3,0.3-0.4,0.5
		s-0.2,0.5-0.2,0.7c0,0.4,0.1,0.8,0.3,1s0.5,0.4,1,0.4c0.4,0,0.8-0.1,1.1-0.4c0.3-0.3,0.6-0.6,0.7-1.1c0.1-0.3,0.2-0.9,0.2-1.5V71.2
		z"/>
	<path fill="#444444" d="M27.7,75.8V63.2h1.1v12.6H27.7z"/>
	<path fill="#444444" d="M35.2,72.4l1.1,0.2c-0.1,1-0.4,1.9-0.9,2.5S34.3,76,33.6,76c-0.9,0-1.6-0.4-2.1-1.2c-0.5-0.8-0.8-2-0.8-3.5
		c0-1,0.1-1.8,0.3-2.6s0.6-1.3,1.1-1.7c0.5-0.4,1-0.6,1.5-0.6c0.7,0,1.3,0.2,1.7,0.8c0.4,0.5,0.7,1.2,0.9,2.1l-1.1,0.2
		c-0.1-0.6-0.3-1.1-0.5-1.4c-0.3-0.3-0.6-0.5-0.9-0.5c-0.5,0-1,0.3-1.3,0.8c-0.3,0.6-0.5,1.4-0.5,2.6c0,1.2,0.2,2.1,0.5,2.7
		c0.3,0.6,0.8,0.8,1.3,0.8c0.4,0,0.8-0.2,1.1-0.6C34.9,73.8,35.1,73.2,35.2,72.4z"/>
	<path fill="#444444" d="M42,75.8v-1.3c-0.5,1-1.2,1.5-2,1.5c-0.4,0-0.7-0.1-1.1-0.3c-0.3-0.2-0.6-0.5-0.7-0.8s-0.3-0.7-0.3-1.1
		c0-0.3-0.1-0.8-0.1-1.4v-5.6h1.1v5.1c0,0.8,0,1.3,0.1,1.6c0.1,0.4,0.2,0.7,0.4,1s0.5,0.3,0.8,0.3c0.3,0,0.6-0.1,0.9-0.4
		c0.3-0.2,0.5-0.6,0.6-1c0.1-0.4,0.2-1,0.2-1.8v-4.9h1.1v9.1H42z"/>
	<path fill="#444444" d="M45.2,75.8V63.2h1.1v12.6H45.2z"/>
	<path fill="#444444" d="M52.7,74.6c-0.4,0.5-0.8,0.8-1.2,1c-0.4,0.2-0.8,0.3-1.2,0.3c-0.7,0-1.3-0.2-1.6-0.7s-0.6-1.1-0.6-1.9
		c0-0.4,0.1-0.9,0.2-1.2c0.1-0.4,0.3-0.7,0.6-0.9c0.2-0.2,0.5-0.4,0.8-0.5c0.2-0.1,0.5-0.2,1-0.2c0.9-0.1,1.5-0.3,1.9-0.5
		c0-0.2,0-0.3,0-0.4c0-0.6-0.1-1.1-0.3-1.3c-0.3-0.3-0.7-0.5-1.2-0.5c-0.5,0-0.9,0.1-1.1,0.4c-0.2,0.3-0.4,0.7-0.5,1.3l-1.1-0.2
		c0.1-0.6,0.3-1.2,0.5-1.6c0.2-0.4,0.5-0.7,1-0.9c0.4-0.2,0.9-0.3,1.5-0.3c0.5,0,1,0.1,1.3,0.3c0.3,0.2,0.6,0.4,0.8,0.7
		c0.2,0.3,0.3,0.6,0.3,1.1c0,0.3,0.1,0.7,0.1,1.4v2.1c0,1.4,0,2.3,0.1,2.7c0,0.4,0.1,0.7,0.3,1.1h-1.1
		C52.8,75.4,52.7,75.1,52.7,74.6z M52.6,71.2c-0.4,0.2-1,0.4-1.8,0.6c-0.4,0.1-0.8,0.2-1,0.3c-0.2,0.1-0.3,0.3-0.4,0.5
		s-0.2,0.5-0.2,0.7c0,0.4,0.1,0.8,0.3,1s0.5,0.4,1,0.4c0.4,0,0.8-0.1,1.1-0.4c0.3-0.3,0.6-0.6,0.7-1.1c0.1-0.3,0.2-0.9,0.2-1.5V71.2
		z"/>
	<path fill="#444444" d="M58.3,74.4l0.2,1.4c-0.3,0.1-0.6,0.1-0.8,0.1c-0.4,0-0.7-0.1-0.9-0.3c-0.2-0.2-0.4-0.4-0.5-0.7
		c-0.1-0.3-0.1-0.9-0.1-1.8v-5.2h-0.8v-1.2h0.8v-2.3l1.1-0.9v3.2h1.1v1.2h-1.1v5.3c0,0.4,0,0.7,0.1,0.8c0,0.1,0.1,0.2,0.2,0.3
		s0.2,0.1,0.4,0.1C57.9,74.4,58.1,74.4,58.3,74.4z"/>
	<path fill="#444444" d="M59.5,71.2c0-1.7,0.3-2.9,1-3.7c0.6-0.7,1.2-1,2-1c0.9,0,1.6,0.4,2.2,1.2c0.6,0.8,0.8,2,0.8,3.4
		c0,1.2-0.1,2.1-0.4,2.8c-0.2,0.7-0.6,1.2-1.1,1.6c-0.5,0.4-1,0.6-1.6,0.6c-0.9,0-1.6-0.4-2.2-1.2S59.5,72.7,59.5,71.2z M60.6,71.2
		c0,1.2,0.2,2,0.5,2.6s0.8,0.9,1.4,0.9c0.5,0,1-0.3,1.4-0.9c0.4-0.6,0.5-1.5,0.5-2.7c0-1.1-0.2-2-0.5-2.6c-0.4-0.6-0.8-0.9-1.3-0.9
		c-0.5,0-1,0.3-1.4,0.9S60.6,70,60.6,71.2z"/>
	<path fill="#444444" d="M67.3,75.8v-9.1h1V68c0.3-0.6,0.5-1.1,0.7-1.3c0.2-0.2,0.4-0.3,0.7-0.3c0.4,0,0.7,0.2,1.1,0.5l-0.4,1.4
		c-0.3-0.2-0.5-0.3-0.8-0.3c-0.2,0-0.5,0.1-0.6,0.3c-0.2,0.2-0.3,0.5-0.4,0.8c-0.1,0.5-0.2,1.1-0.2,1.8v4.8H67.3z"/>
</g>
</svg>
