<svg version="1.2" baseProfile="tiny" xmlns="http://www.w3.org/2000/svg" viewBox="0 0 83.9 84.2"><path fill="#FFD366" d="M1.1 65.6c0 3.5-.1 6.8 0 10 0 .9.4 1.9.8 2.7 2 3.9 5.2 5.8 9.6 5.8h62c4.6-.3 8.5-3.5 9.1-8 .5-3.4.1-6.9.1-10.5h-2.5c0 2.6-.1 5 0 7.5.3 5-3.4 8.4-8.2 8.3-7.7-.2-15.4 0-23.1 0-12.4 0-24.7-.1-37.1.1-5 .1-8.5-3.5-8.2-8.1.1-2 0-4.1 0-6.1 0-.5-.1-1-.1-1.6-.8-.1-1.5-.1-2.4-.1z"/><g fill="#FFD366"><path d="M67 32.4c.2 0 .4.1.5.1v22.6c0 .7 0 1.3.1 2 .2 1.1 1 1.6 2.1 1.6s1.8-.6 2.1-1.6c.1-.5.1-1 .1-1.4V26c0-1.9-.4-2.8-1.6-3.1-1.5-.4-2.3.6-3.1 1.7l-.6.9c-3.7 5-7.3 10.1-11 15.1-.4.6-.9 1.1-1.4 1.8-.6-.8-1.1-1.4-1.5-2L41.3 24.8c-.8-1.1-1.6-2.4-3.3-1.9-1.7.6-1.5 2.1-1.5 3.5v28.8c0 .6 0 1.2.1 1.8.2 1.1 1.1 1.8 2.2 1.8s1.9-.7 2.1-1.9c.1-.5 0-1.1 0-1.6V32.5c.1 0 .3-.1.4-.1l1.2 1.5c3.1 4.2 6.2 8.4 9.2 12.7 1.4 2 3.5 2.5 5.1-.1.9-1.4 2-2.7 2.9-4.1 2.5-3.3 4.9-6.7 7.3-10zm16.4-12.3v-9.9C83.3 4.4 79 0 73.3 0H11.5C5.8 0 1.5 4.5 1.4 10.3v8.5c0 .5.1.9.1 1.3h2.6V11c0-5.2 2.9-8.1 8.2-8.1 20.1 0 40.1.1 60.2-.1 4.8 0 8.5 3.3 8.2 8.3-.2 3 0 6 0 9h2.7zm-3.9 20.8v14.6c0 .5 0 1.1.1 1.6.2 1 1.2 1.8 2.2 1.8 1 0 1.9-.8 2.1-1.9.1-.5.1-1.1.1-1.6v-29c0-.5 0-1.1-.1-1.6-.2-1.2-1-1.8-2.1-1.9-1.1 0-2 .7-2.2 1.8-.1.5-.1 1-.1 1.4v14.8z"/><path d="M53.8 10.1c-7.7-2.8-15.2-2.8-22.9.1v2.7c0 .4.1.8.1 1.3h22.7c.1-1.4.1-2.6.1-4.1z"/><path d="M83.4 20.1h-2.8c0-3.1-.1-6.1 0-9 .3-5-3.5-8.3-8.2-8.3-20.1.1-40.1 0-60.2.1C7 2.9 4.1 5.8 4 11v9.1H1.4c0-.4-.1-.8-.1-1.3v-8.5C1.5 4.5 5.8 0 11.5 0h61.8c5.7 0 10 4.4 10.1 10.1.1 3.3 0 6.6 0 10zM1.5 65.6H4c0 .6.1 1.1.1 1.6 0 2 .1 4.1 0 6.1-.3 4.6 3.2 8.2 8.2 8.1 12.4-.2 24.7-.1 37.1-.1 7.7 0 15.4-.1 23.1 0 4.8.1 8.5-3.3 8.2-8.3-.1-2.4 0-4.9 0-7.5h2.5c0 3.5.4 7.1-.1 10.5-.6 4.5-4.6 7.7-9.1 8H12c-4.4 0-7.6-1.9-9.6-5.8-.4-.8-.8-1.8-.8-2.7-.1-3.1-.1-6.4-.1-9.9z"/><path d="M53.8 10.1v4H31.1c0-.5-.1-.9-.1-1.3v-2.7c7.6-2.8 15.1-2.8 22.8 0zM25 40.1c-.1-.1-.2-.3-.4-.5.1-.3.2-.5.4-.8 1.6-2.2 2-4.6 1.8-7.2-.3-4.9-3.5-8.2-8.5-8.6-.8-.1-1.6-.1-2.3-.1H3.4c-2.8 0-3.4.6-3.4 3.4v29.2c0 2.7.7 3.4 3.4 3.4h13.2c1.5 0 3-.1 4.5-.3 3.8-.7 6.5-2.8 7.4-6.7 1.1-4.5.5-8.7-3.5-11.8zm-.6 9.7c-.3 2.7-1.8 4.5-4.5 4.6-5 .2-10.1.1-15.3.1V27.4h12.7c4.3.3 6.5 4 4.7 8-.9 2.1-2.8 2.8-4.9 2.8-2.2.1-4.4 0-6.7.1-1.8.1-2.9 1.5-2.2 3 .5 1.1 1.4 1.4 2.5 1.4 2.2 0 4.4-.1 6.7 0 1.2 0 2.5.2 3.7.6 2.1.6 3.1 2.2 3.3 4.3.1.6.1 1.4 0 2.2z"/></g><path d="M17.7 72.4l1.1.2c-.1 1-.4 1.9-.9 2.5s-1.1.9-1.8.9c-.9 0-1.6-.4-2.1-1.2-.5-.8-.8-2-.8-3.5 0-1 .1-1.8.3-2.6s.6-1.3 1.1-1.7c.5-.4 1-.6 1.5-.6.7 0 1.3.2 1.7.8.4.5.7 1.2.9 2.1l-1.1.2c-.1-.6-.3-1.1-.5-1.4-.3-.3-.6-.5-.9-.5-.5 0-1 .3-1.3.8-.3.6-.5 1.4-.5 2.6 0 1.2.2 2.1.5 2.7.3.6.8.8 1.3.8.4 0 .8-.2 1.1-.6.2-.1.3-.7.4-1.5zm6.8 2.2c-.4.5-.8.8-1.2 1-.4.2-.8.3-1.2.3-.7 0-1.3-.2-1.6-.7s-.6-1.1-.6-1.9c0-.4.1-.9.2-1.2.1-.4.3-.7.6-.9.2-.2.5-.4.8-.5.2-.1.5-.2 1-.2.9-.1 1.5-.3 1.9-.5v-.4c0-.6-.1-1.1-.3-1.3-.3-.3-.7-.5-1.2-.5s-.9.1-1.1.4c-.2.3-.4.7-.5 1.3l-1.1-.2c.1-.6.3-1.2.5-1.6.2-.4.5-.7 1-.9.4-.2.9-.3 1.5-.3.5 0 1 .1 1.3.3.3.2.6.4.8.7.2.3.3.6.3 1.1 0 .3.1.7.1 1.4v2.1c0 1.4 0 2.3.1 2.7 0 .4.1.7.3 1.1H25c-.4-.5-.5-.8-.5-1.3zm-.1-3.4c-.4.2-1 .4-1.8.6-.4.1-.8.2-1 .3-.2.1-.3.3-.4.5s-.2.5-.2.7c0 .4.1.8.3 1s.5.4 1 .4c.4 0 .8-.1 1.1-.4.3-.3.6-.6.7-1.1.1-.3.2-.9.2-1.5v-.5zm3.3 4.6V63.2h1.1v12.6h-1.1zm7.5-3.4l1.1.2c-.1 1-.4 1.9-.9 2.5s-1.1.9-1.8.9c-.9 0-1.6-.4-2.1-1.2-.5-.8-.8-2-.8-3.5 0-1 .1-1.8.3-2.6s.6-1.3 1.1-1.7c.5-.4 1-.6 1.5-.6.7 0 1.3.2 1.7.8.4.5.7 1.2.9 2.1l-1.1.2c-.1-.6-.3-1.1-.5-1.4-.3-.3-.6-.5-.9-.5-.5 0-1 .3-1.3.8-.3.6-.5 1.4-.5 2.6 0 1.2.2 2.1.5 2.7.3.6.8.8 1.3.8.4 0 .8-.2 1.1-.6.1-.1.3-.7.4-1.5zm6.8 3.4v-1.3c-.5 1-1.2 1.5-2 1.5-.4 0-.7-.1-1.1-.3-.3-.2-.6-.5-.7-.8s-.3-.7-.3-1.1c0-.3-.1-.8-.1-1.4v-5.6h1.1v5.1c0 .8 0 1.3.1 1.6.1.4.2.7.4 1s.5.3.8.3c.3 0 .6-.1.9-.4.3-.2.5-.6.6-1 .1-.4.2-1 .2-1.8v-4.9H43v9.1h-1zm3.2 0V63.2h1.1v12.6h-1.1zm7.5-1.2c-.4.5-.8.8-1.2 1-.4.2-.8.3-1.2.3-.7 0-1.3-.2-1.6-.7s-.6-1.1-.6-1.9c0-.4.1-.9.2-1.2.1-.4.3-.7.6-.9.2-.2.5-.4.8-.5.2-.1.5-.2 1-.2.9-.1 1.5-.3 1.9-.5v-.4c0-.6-.1-1.1-.3-1.3-.3-.3-.7-.5-1.2-.5s-.9.1-1.1.4c-.2.3-.4.7-.5 1.3l-1.1-.2c.1-.6.3-1.2.5-1.6.2-.4.5-.7 1-.9.4-.2.9-.3 1.5-.3.5 0 1 .1 1.3.3.3.2.6.4.8.7.2.3.3.6.3 1.1 0 .3.1.7.1 1.4v2.1c0 1.4 0 2.3.1 2.7 0 .4.1.7.3 1.1h-1.1c-.4-.5-.5-.8-.5-1.3zm-.1-3.4c-.4.2-1 .4-1.8.6-.4.1-.8.2-1 .3-.2.1-.3.3-.4.5s-.2.5-.2.7c0 .4.1.8.3 1s.5.4 1 .4c.4 0 .8-.1 1.1-.4.3-.3.6-.6.7-1.1.1-.3.2-.9.2-1.5v-.5zm5.7 3.2l.2 1.4c-.3.1-.6.1-.8.1-.4 0-.7-.1-.9-.3-.2-.2-.4-.4-.5-.7-.1-.3-.1-.9-.1-1.8v-5.2h-.8v-1.2h.8v-2.3l1.1-.9v3.2h1.1v1.2h-1.1v5.3c0 .4 0 .7.1.8 0 .1.1.2.2.3s.2.1.4.1h.3zm1.2-3.2c0-1.7.3-2.9 1-3.7.6-.7 1.2-1 2-1 .9 0 1.6.4 2.2 1.2.6.8.8 2 .8 3.4 0 1.2-.1 2.1-.4 2.8-.2.7-.6 1.2-1.1 1.6-.5.4-1 .6-1.6.6-.9 0-1.6-.4-2.2-1.2s-.7-2.2-.7-3.7zm1.1 0c0 1.2.2 2 .5 2.6s.8.9 1.4.9c.5 0 1-.3 1.4-.9.4-.6.5-1.5.5-2.7 0-1.1-.2-2-.5-2.6-.4-.6-.8-.9-1.3-.9s-1 .3-1.4.9-.6 1.5-.6 2.7zm6.7 4.6v-9.1h1V68c.3-.6.5-1.1.7-1.3.2-.2.4-.3.7-.3.4 0 .7.2 1.1.5l-.4 1.4c-.3-.2-.5-.3-.8-.3-.2 0-.5.1-.6.3-.2.2-.3.5-.4.8-.1.5-.2 1.1-.2 1.8v4.8h-1.1z" fill="#FFD366"/></svg>